<?xml version="1.0" encoding="UTF-8" standalone="no"?>
<svg
   xmlns:dc="http://purl.org/dc/elements/1.1/"
   xmlns:cc="http://creativecommons.org/ns#"
   xmlns:rdf="http://www.w3.org/1999/02/22-rdf-syntax-ns#"
   xmlns:svg="http://www.w3.org/2000/svg"
   xmlns="http://www.w3.org/2000/svg"
   xmlns:sodipodi="http://sodipodi.sourceforge.net/DTD/sodipodi-0.dtd"
   xmlns:inkscape="http://www.inkscape.org/namespaces/inkscape"
   version="1.1"
   width="180"
   height="180"
   viewBox="0 0 24 24"
   id="svg4"
   sodipodi:docname="shield-lock-outline.svg"
   inkscape:version="1.0.1 (3bc2e813f5, 2020-09-07)">
  <metadata
     id="metadata10">
    <rdf:RDF>
      <cc:Work
         rdf:about="">
        <dc:format>image/svg+xml</dc:format>
        <dc:type
           rdf:resource="http://purl.org/dc/dcmitype/StillImage" />
        <dc:title></dc:title>
      </cc:Work>
    </rdf:RDF>
  </metadata>
  <defs
     id="defs8" />
  <sodipodi:namedview
     pagecolor="#ffffff"
     bordercolor="#666666"
     borderopacity="1"
     objecttolerance="10"
     gridtolerance="10"
     guidetolerance="10"
     inkscape:pageopacity="0"
     inkscape:pageshadow="2"
     inkscape:window-width="1920"
     inkscape:window-height="1017"
     id="namedview6"
     showgrid="false"
     inkscape:zoom="3.0790089"
     inkscape:cx="120"
     inkscape:cy="120"
     inkscape:window-x="1912"
     inkscape:window-y="-8"
     inkscape:window-maximized="1"
     inkscape:current-layer="svg4" />
  <path
     d="M21,11C21,16.55 17.16,21.74 12,23C6.84,21.74 3,16.55 3,11V5L12,1L21,5V11M12,21C15.75,20 19,15.54 19,11.22V6.3L12,3.18L5,6.3V11.22C5,15.54 8.25,20 12,21M14.8,11V9.5C14.8,8.1 13.4,7 12,7C10.6,7 9.2,8.1 9.2,9.5V11C8.6,11 8,11.6 8,12.2V15.7C8,16.4 8.6,17 9.2,17H14.7C15.4,17 16,16.4 16,15.8V12.3C16,11.6 15.4,11 14.8,11M13.5,11H10.5V9.5C10.5,8.7 11.2,8.2 12,8.2C12.8,8.2 13.5,8.7 13.5,9.5V11Z"
     id="path2" />
  <path
     style="fill:#f9f9f9;stroke-width:0.282353"
     d="M 117.03529,208.95814 C 101.53224,203.77157 87.766334,193.9064 75.641985,179.29412 61.5692,162.33358 52.281561,140.43989 50.548396,120.14118 50.323155,117.50316 50.250198,108.12016 50.311468,89.669692 L 50.4,63.00997 85.201494,47.495198 120.00299,31.980424 154.80149,47.493199 189.6,63.005975 V 91.78534 c 0,31.41915 0.0514,30.24047 -1.70105,38.9745 -4.85618,24.20217 -19.82739,48.61802 -39.34133,64.15994 -7.90052,6.29239 -18.40483,11.97998 -26.35892,14.27213 -0.88718,0.25566 -1.77659,0.52019 -1.97647,0.58784 -0.19987,0.0677 -1.63399,-0.30207 -3.18694,-0.82161 z m 34.36694,-39.59224 c 3.38811,-1.28172 6.41921,-4.08408 7.90649,-7.30982 l 0.64422,-1.39726 0.0781,-19.47175 c 0.0532,-13.26601 -0.02,-19.94482 -0.22999,-20.95609 -1.01894,-4.90821 -5.74313,-9.64356 -10.1404,-10.16435 l -1.37335,-0.16265 -0.12137,-9.06964 C 148.057,92.690759 147.98327,91.540594 147.44391,89.56979 144.39731,78.437639 132.4714,69.882353 120,69.882353 c -10.50462,0 -20.938701,6.134406 -25.562352,15.028614 -2.278952,4.383868 -2.464379,5.517902 -2.60363,15.923373 l -0.121372,9.06964 -1.371547,0.16244 c -3.436642,0.40702 -7.409681,3.50372 -9.236287,7.19904 l -1.057753,2.13988 -0.07815,19.48673 c -0.05399,13.4628 0.01866,19.95304 0.235,20.99518 0.878784,4.23307 4.359493,8.19097 8.428263,9.58374 l 1.861949,0.63736 29.647059,-0.0659 c 29.62505,-0.0659 29.64825,-0.0664 31.26105,-0.67651 z"
     id="path12"
     transform="scale(0.1)" />
  <path
     style="fill:#f9f9f9;stroke-width:0.32478"
     d="m 116.42742,208.6258 c -1.51834,-0.53776 -2.90678,-1.01851 -3.08541,-1.06835 -0.17863,-0.0498 -1.05553,-0.4136 -1.94868,-0.80837 -4.58332,-2.02582 -6.20846,-2.78191 -6.58456,-3.06341 -0.77822,-0.58249 -5.380296,-3.14027 -5.650116,-3.14027 -0.148139,0 -0.269343,-0.14615 -0.269343,-0.32478 0,-0.17863 -0.196577,-0.32478 -0.436833,-0.32478 -0.240259,0 -0.701362,-0.2923 -1.024677,-0.64956 -0.323315,-0.35726 -0.709673,-0.64956 -0.858575,-0.64956 -0.148901,0 -0.528163,-0.21012 -0.842807,-0.46693 -0.314643,-0.25682 -1.814359,-1.43247 -3.332705,-2.61256 -1.518346,-1.1801 -3.404411,-2.68725 -4.191251,-3.34923 -1.868875,-1.57231 -9.016628,-8.75272 -10.627672,-10.67623 -0.691723,-0.82589 -1.549981,-1.83411 -1.907239,-2.2405 -1.206201,-1.37206 -1.626812,-1.91992 -3.724007,-4.85065 -1.150425,-1.60766 -2.174961,-2.99609 -2.276747,-3.08541 -0.213963,-0.18774 -1.287519,-1.81054 -1.826284,-2.76062 -0.20259,-0.35726 -1.212023,-2.038 -2.243185,-3.73497 -1.592055,-2.62004 -4.126832,-7.51616 -6.641616,-12.82881 -1.41852,-2.99671 -5.027676,-13.4011 -5.689439,-16.40138 -0.994505,-4.50884 -1.874642,-8.9099 -2.013462,-10.06817 -0.09634,-0.80383 -0.296793,-2.11919 -0.445451,-2.92302 -0.148657,-0.80383 -0.27799,-14.54202 -0.287406,-30.529306 l -0.01712,-29.067795 1.377454,-0.60637 c 1.525457,-0.671522 3.384209,-1.494425 5.599591,-2.479039 l 2.92302,-1.299119 c 0.80383,-0.357258 2.082651,-0.932122 2.841823,-1.277477 0.759173,-0.345354 4.084107,-1.82071 7.388742,-3.27857 3.304635,-1.45786 6.812257,-3.018508 7.794716,-3.468108 0.982459,-0.449599 2.40743,-1.093431 3.166603,-1.430737 0.759173,-0.337306 2.037994,-0.905585 2.841824,-1.262843 l 2.923018,-1.299119 c 0.80383,-0.357258 2.082651,-0.931968 2.841824,-1.277133 0.759173,-0.345165 4.741786,-2.112978 8.850251,-3.928474 4.108469,-1.815495 8.273769,-3.6686 9.256229,-4.11801 0.98245,-0.449411 2.40743,-1.093088 3.1666,-1.430394 0.75917,-0.337306 2.00146,-0.889288 2.76063,-1.226628 0.75917,-0.337339 2.36672,-1.067858 3.57234,-1.623376 l 2.19202,-1.010032 2.40183,1.109427 c 1.32101,0.610184 3.47684,1.577112 4.79074,2.148729 2.46504,1.072421 3.87247,1.692012 6.52986,2.874627 0.84849,0.377601 2.23692,0.995525 3.08541,1.373163 1.68642,0.750579 4.55626,2.039325 6.08962,2.73463 0.53589,0.243 1.77817,0.797888 2.76063,1.233084 0.98246,0.435196 2.66319,1.190123 3.73497,1.677614 1.07177,0.487491 3.92171,1.754308 6.3332,2.815149 2.41149,1.06084 4.82298,2.125092 5.35887,2.365003 0.53589,0.239911 1.70509,0.760605 2.59824,1.157096 1.68142,0.74643 4.47558,2.000198 6.17081,2.768908 0.53589,0.243 1.77817,0.797888 2.76063,1.233084 0.98246,0.435196 2.6632,1.190123 3.73497,1.677614 1.88615,0.857904 8.95813,3.987696 11.77327,5.210402 l 1.38032,0.599515 v 27.334229 c 0,29.127016 -0.15544,33.207956 -1.5077,39.585246 -0.45716,2.15595 -0.89879,4.28529 -0.98141,4.73186 -0.50778,2.7448 -4.23676,13.57543 -6.03835,17.53811 -1.84672,4.06196 -4.76259,9.64807 -6.7682,12.96628 -1.23335,2.04053 -2.24246,3.83088 -2.24246,3.97856 0,0.14767 -0.12145,0.2685 -0.26989,0.2685 -0.14845,0 -0.47729,0.39986 -0.73076,0.8886 -0.25347,0.48872 -0.63615,1.10987 -0.85039,1.38031 -0.21424,0.27044 -1.44055,1.88015 -2.72512,3.57712 -4.70774,6.21911 -11.30048,13.37085 -15.86792,17.21333 -0.95549,0.80383 -1.89827,1.60766 -2.09507,1.78629 -0.19681,0.17863 -0.94243,0.75551 -1.65694,1.28195 -0.71452,0.52645 -1.3722,1.04898 -1.46151,1.16119 -0.0893,0.11221 -0.63738,0.48029 -1.21793,0.81795 -0.58054,0.33766 -1.05553,0.72857 -1.05553,0.86869 0,0.14011 -0.21923,0.25475 -0.48717,0.25475 -0.26795,0 -0.48717,0.14615 -0.48717,0.32478 0,0.17863 -0.21923,0.32478 -0.48717,0.32478 -0.26794,0 -0.48717,0.14615 -0.48717,0.32478 0,0.17863 -0.21923,0.32478 -0.48717,0.32478 -0.26794,0 -0.48717,0.14615 -0.48717,0.32478 0,0.17863 -0.14951,0.32478 -0.33224,0.32478 -0.31048,0 -5.48251,2.87137 -5.83858,3.24142 -0.23728,0.24659 -3.70576,1.95506 -3.96912,1.95506 -0.12312,0 -1.14385,0.43491 -2.26831,0.96648 -2.45361,1.1599 -7.8329,2.93796 -8.81292,2.91302 -0.38581,-0.01 -1.94375,-0.45783 -3.4621,-0.99558 z M 145.82,169.91927 c 4.65607,-0.0876 4.95726,-0.13423 6.80486,-1.05296 2.40001,-1.19343 4.88814,-3.60172 6.36189,-6.15776 l 1.12356,-1.94868 0.1011,-17.7005 c 0.11413,-19.9844 -0.0394,-22.66685 -1.47269,-25.72974 -1.71209,-3.65864 -5.70523,-6.84252 -9.16346,-7.30636 l -1.31941,-0.17697 v -7.51689 c 0,-9.235497 -0.33705,-12.202244 -1.7591,-15.483725 -4.73539,-10.92727 -17.24912,-18.12531 -29.24005,-16.819205 -10.39832,1.132634 -19.454012,7.428125 -23.614399,16.416663 -1.470055,3.176051 -1.893142,6.686986 -1.895851,15.732397 l -0.0023,7.67076 -1.277197,0.17131 c -3.525053,0.4728 -7.301099,3.36333 -9.313064,7.12906 l -1.264226,2.36616 v 20.13635 20.13635 l 1.201425,2.51601 c 1.274713,2.66949 3.537142,5.2562 5.488455,6.27512 3.213213,1.67787 2.083615,1.61888 29.169737,1.52325 13.85945,-0.0489 27.39125,-0.13022 30.07069,-0.18064 z"
     id="path14"
     transform="scale(0.1)" />
  <path
     style="fill:#b3b3b3;stroke-width:0.32478"
     d="m 105.06013,102.35915 c 0,-10.513963 0.4055,-12.269998 3.6177,-15.666418 5.60153,-5.922797 17.01855,-5.94845 22.59633,-0.05077 3.2656,3.452892 3.66571,5.168433 3.66571,15.717188 v 7.57268 H 120 105.06013 Z"
     id="path16"
     transform="scale(0.1)" />
  <path
     style="fill:#f9f9f9;stroke-width:0.32478"
     d="m 116.26503,208.6358 c -1.60766,-0.54634 -3.56239,-1.28414 -4.34385,-1.63956 -0.78147,-0.35543 -2.09682,-0.91712 -2.92302,-1.24821 -0.8262,-0.33109 -2.15986,-0.9727 -2.96369,-1.42579 -0.80383,-0.4531 -1.97304,-1.079 -2.59824,-1.3909 -1.30872,-0.65289 -4.306553,-2.4297 -4.546919,-2.69495 -0.08932,-0.0986 -0.564305,-0.38635 -1.055535,-0.63953 -0.491229,-0.25319 -0.893144,-0.5818 -0.893144,-0.73024 0,-0.14844 -0.150341,-0.2699 -0.334092,-0.2699 -0.412022,0 -5.919405,-4.20208 -8.726178,-6.65799 -1.790547,-1.56671 -8.84324,-8.69624 -10.768812,-10.88613 -2.787872,-3.17056 -9.725884,-12.57279 -9.725884,-13.18029 0,-0.12691 -0.365377,-0.70979 -0.811949,-1.29527 -0.446572,-0.58549 -0.81195,-1.16477 -0.81195,-1.28729 0,-0.12253 -0.497524,-1.04572 -1.105609,-2.05155 -1.227255,-2.02998 -4.462935,-8.38612 -6.056307,-11.89695 -1.761597,-3.88149 -5.399752,-15.37484 -6.322644,-19.97396 -1.742396,-8.68301 -1.722224,-8.23124 -1.755563,-39.317235 l -0.03119,-29.086676 1.546037,-0.684686 c 2.175912,-0.963636 13.913829,-6.189659 15.673959,-6.978451 1.606405,-0.719901 3.59979,-1.606769 5.846037,-2.600935 0.80383,-0.355767 1.899962,-0.841022 2.435849,-1.078345 0.535887,-0.237324 2.267672,-1.025729 3.848412,-1.752012 1.580739,-0.726283 2.969175,-1.321414 3.085407,-1.322515 0.116235,-0.0011 0.639914,-0.225493 1.163732,-0.498649 0.523818,-0.273156 2.643006,-1.241457 4.709307,-2.151779 2.066302,-0.910322 4.97717,-2.220515 6.468595,-2.91154 1.491428,-0.691024 2.765916,-1.256408 2.8322,-1.256408 0.06628,0 0.965217,-0.38115 1.997621,-0.847001 1.03241,-0.465851 2.31556,-1.040781 2.85145,-1.277624 0.53589,-0.236842 2.62873,-1.177556 4.65077,-2.090475 2.02204,-0.91292 5.64252,-2.529695 8.04552,-3.592834 l 4.36908,-1.93298 4.78329,2.140718 c 2.63081,1.177394 5.36789,2.399971 6.0824,2.716836 0.71452,0.316866 14.19694,6.320696 29.96094,13.341845 l 28.66183,12.765726 -9.8e-4,27.630722 c -6.5e-4,16.375578 -0.13779,29.152128 -0.33666,31.365688 -0.67628,7.52738 -2.99625,16.96885 -6.30463,25.65761 -2.52353,6.62749 -7.39982,16.06011 -11.49882,22.24312 -1.19647,1.80477 -5.70859,7.76574 -7.49299,9.89898 -0.8167,0.97636 -1.77721,2.12564 -2.13446,2.55397 -1.34759,1.61566 -8.51448,8.75128 -10.18342,10.13898 -0.95653,0.79534 -2.03947,1.70269 -2.40653,2.01633 -0.36706,0.31364 -1.26519,1.01733 -1.99583,1.56375 -4.07316,3.04617 -5.26295,3.86793 -5.60471,3.87101 -0.20839,0.002 -0.42762,0.12516 -0.48717,0.27395 -0.0978,0.24455 -2.95564,1.90984 -7.5141,4.37861 -0.92839,0.5028 -2.63797,1.29303 -3.79906,1.75608 -1.16109,0.46305 -2.25722,0.95017 -2.43585,1.08249 -0.51595,0.38221 -6.72509,2.2562 -7.45702,2.25062 -0.36436,-0.003 -1.97783,-0.45205 -3.58549,-0.99838 z m 34.6113,-39.14053 c 2.03772,-0.60162 5.34463,-2.83879 6.51535,-4.40772 0.44319,-0.59393 1.23306,-1.81064 1.75527,-2.70378 l 0.94947,-1.6239 0.068,-18.02528 c 0.0773,-20.47767 -0.0425,-22.55368 -1.46833,-25.44454 -1.79938,-3.64823 -5.77851,-6.81847 -9.12088,-7.26678 l -1.31941,-0.17697 v -7.3545 c 0,-8.411355 -0.34264,-11.866084 -1.47534,-14.87539 -2.46804,-6.556957 -8.64601,-12.621961 -15.81348,-15.524304 -11.23331,-4.548736 -24.08861,-1.672135 -32.445357,7.260223 -2.791847,2.984145 -4.240085,5.274778 -5.346594,8.456539 -1.139958,3.277955 -1.409551,6.034624 -1.420896,14.529062 l -0.01003,7.50837 -1.319418,0.17697 c -3.441455,0.4616 -7.48106,3.63016 -9.443782,7.40747 l -1.081871,2.08209 -0.0047,20.13635 -0.0047,20.13635 1.201425,2.51601 c 1.750717,3.66633 4.711117,6.39006 8.0548,7.41084 0.446573,0.13634 14.121693,0.26044 30.389163,0.2758 26.24411,0.0248 29.776,-0.0308 31.34125,-0.49291 z"
     id="path18"
     transform="scale(0.1)" />
  <path
     style="fill:#f9f9f9;stroke-width:0.32478"
     d="m 115.45308,208.37946 c -1.8756,-0.67136 -4.65247,-1.77085 -6.17081,-2.44332 -4.13349,-1.83068 -12.020977,-6.36041 -12.287507,-7.05663 -0.05955,-0.15553 -0.254284,-0.28279 -0.432757,-0.28279 -0.445578,0 -4.986111,-3.48725 -8.71521,-6.69352 -2.90889,-2.50106 -9.17858,-8.91503 -11.870536,-12.14371 -2.988216,-3.58401 -10.214493,-13.81109 -10.214493,-14.45619 0,-0.0945 -0.386273,-0.78371 -0.858384,-1.53158 -1.083632,-1.71658 -5.195574,-9.80883 -6.384263,-12.56414 -2.316921,-5.37049 -5.077048,-14.14542 -6.240701,-19.84029 -1.738102,-8.50619 -1.723767,-8.18536 -1.75696,-39.321302 l -0.03101,-29.09074 16.648301,-7.402464 c 9.156565,-4.071356 17.383579,-7.740479 18.282251,-8.153605 0.898673,-0.413127 9.048808,-4.053025 18.111409,-8.088663 l 16.47746,-7.337523 11.60595,5.169002 c 6.38326,2.842951 21.17882,9.437381 32.87902,14.654288 11.70019,5.216908 22.1178,9.856647 23.15025,10.310531 l 1.87717,0.825244 -0.0409,29.102336 c -0.0232,16.506766 -0.17482,30.016016 -0.35036,31.213406 -1.19107,8.1247 -2.24784,12.66789 -4.55979,19.60324 -5.51161,16.53363 -15.1905,32.1104 -27.68246,44.55087 -6.25736,6.23158 -12.79348,11.35895 -18.21394,14.28825 -1.2504,0.67573 -2.63884,1.47473 -3.08541,1.77554 -1.64158,1.10578 -8.28707,4.04894 -11.36729,5.03436 -0.98246,0.31431 -2.12201,0.6992 -2.53233,0.85532 -1.31068,0.49869 -2.7434,0.2745 -6.23673,-0.97592 z m 37.13875,-39.61422 c 2.67852,-1.31879 5.21328,-3.80403 6.50793,-6.38078 l 0.93812,-1.86716 0.0957,-17.25444 c 0.1111,-20.03712 -0.0324,-22.97236 -1.25379,-25.64016 -1.67148,-3.651 -5.78182,-7.02407 -9.20497,-7.55388 l -1.34168,-0.20766 -0.16908,-9.1397 c -0.20795,-11.241557 -0.60294,-13.021987 -4.01825,-18.112421 -4.15499,-6.192915 -11.6881,-10.974866 -19.40626,-12.318925 -3.15339,-0.549141 -9.47544,-0.222136 -12.37186,0.639923 -3.01678,0.897887 -7.27659,2.965143 -9.75648,4.734755 -2.60717,1.860439 -6.042025,5.587177 -7.622346,8.27007 -2.631385,4.467272 -3.237886,7.997002 -3.242027,18.868018 l -0.0026,6.99898 -1.922703,0.39713 c -3.555927,0.73447 -7.008726,3.63006 -8.957958,7.51234 l -0.889231,1.77108 -0.04229,20.15156 -0.04235,20.15156 0.890107,1.90103 c 1.301129,2.77886 2.931792,4.83882 4.907603,6.19962 3.255736,2.2423 1.140195,2.11723 34.482085,2.03869 l 30.21162,-0.0712 z"
     id="path20"
     transform="scale(0.1)" />
  <path
     style="fill:#f9f9f9;stroke-width:0.32478"
     d="m 105.07821,106.44044 c 0.0351,-6.783347 0.54986,-14.157269 1.09489,-15.685126 0.60834,-1.705316 2.77699,-4.313588 4.6872,-5.637364 4.63164,-3.209727 11.81042,-3.548589 16.96573,-0.80084 2.40834,1.283633 5.24477,4.316545 5.99116,6.40617 0.54884,1.536574 1.06235,8.928435 1.10315,15.87955 l 0.0195,3.329 H 120 105.06013 Z"
     id="path22"
     transform="scale(0.1)" />
  <path
     style="fill:#f9f9f9;stroke-width:0.32478"
     d="M 115.77786,208.5226 C 95.255615,201.32964 76.766117,184.83618 64.055318,162.38377 57.42372,150.66969 52.463615,136.03781 50.84354,123.41019 50.683119,122.15979 50.538045,108.04397 50.521154,92.041714 l -0.03071,-29.095018 4.793838,-2.143366 c 2.636611,-1.178851 11.736007,-5.234701 20.22088,-9.013 8.484874,-3.778298 21.972357,-9.786261 29.972188,-13.351028 l 14.54513,-6.481394 33.84706,15.084362 c 18.61588,8.2964 34.25715,15.271775 34.75838,15.500835 l 0.91132,0.416473 -0.12775,30.387696 c -0.12412,29.525066 -0.14774,30.493726 -0.83199,34.122666 -2.60843,13.83377 -7.61138,26.91183 -14.66069,38.32402 -0.16552,0.26794 -0.72793,1.21792 -1.24982,2.11107 -0.52188,0.89314 -1.54243,2.42773 -2.26788,3.41018 -0.72544,0.98246 -1.80051,2.44397 -2.38905,3.2478 -4.71973,6.44624 -12.20374,14.43578 -18.00958,19.22611 -3.31566,2.73571 -8.22025,6.20803 -10.67808,7.55978 -0.89314,0.49121 -2.57771,1.45858 -3.74349,2.14971 -4.10366,2.43287 -13.64681,6.15786 -15.68672,6.12302 -0.567,-0.01 -2.41935,-0.50425 -4.11633,-1.09903 z m 36.46668,-39.54871 c 2.41978,-1.13387 5.40381,-3.99051 6.69083,-6.4052 l 1.01301,-1.90062 0.13733,-17.00504 c 0.15782,-19.54171 -0.0146,-23.31967 -1.18365,-25.93649 -1.60488,-3.59238 -5.87472,-7.11474 -9.28576,-7.66019 l -1.36045,-0.21755 -0.008,-6.69767 c -0.0142,-11.34858 -0.58406,-14.646021 -3.32522,-19.241273 -2.82523,-4.736196 -7.19974,-8.594093 -12.62391,-11.133082 -3.9695,-1.858079 -6.48918,-2.490532 -10.76966,-2.703257 -5.51889,-0.274266 -9.92585,0.676539 -15.0072,3.237821 -5.51903,2.781902 -10.674142,8.047694 -12.851631,13.127572 -1.419331,3.311157 -1.647475,5.110434 -1.831648,14.445409 l -0.177129,8.97777 -1.338775,0.20719 c -3.387827,0.52431 -7.269774,3.56918 -9.216791,7.22935 l -1.057643,1.98825 -0.01766,20.33654 -0.01766,20.33653 1.131495,2.34864 c 1.839075,3.81736 5.136607,6.71645 8.374324,7.36247 0.777611,0.15516 14.786658,0.25973 31.131198,0.23238 l 29.71736,-0.0497 1.87762,-0.87981 z"
     id="path24"
     transform="scale(0.1)" />
  <path
     style="fill:#ffffff;stroke-width:0.32478"
     d="m 105.30144,104.65415 c 0.15134,-7.723007 0.63074,-12.747472 1.37731,-14.435213 0.79718,-1.802157 3.9396,-4.953276 5.85131,-5.867508 4.65801,-2.227581 10.28187,-2.227581 14.93988,0 1.90008,0.908669 5.05249,4.061634 5.83928,5.840311 0.72358,1.63577 1.25237,7.281031 1.38512,14.78719 l 0.0876,4.9529 h -14.79196 -14.79196 z"
     id="path26"
     transform="scale(0.1)" />
  <path
     style="fill:#ffffff;stroke-width:0.32478"
     d="m 105.4785,103.03025 c 0.32362,-11.602542 0.73791,-13.153022 4.4272,-16.568658 4.06267,-3.761308 10.44321,-4.723273 16.44191,-2.478871 2.19768,0.822257 5.65035,3.913732 6.60325,5.912473 0.91313,1.915299 1.33623,5.506416 1.5667,13.297446 l 0.19935,6.73919 h -14.71545 -14.71545 z"
     id="path28"
     transform="scale(0.1)" />
  <path
     style="fill:#ffffff;stroke-width:0.32478"
     d="M 115.77786,208.5226 C 98.492858,202.46428 83.087164,190.21363 70.398517,172.43682 61.145447,159.47326 54.778085,144.53811 51.573772,128.28189 L 50.677515,123.73497 50.572494,93.337274 50.467473,62.939579 64.529022,56.673317 C 72.262874,53.226873 87.917767,46.254189 99.317669,41.178465 l 20.727101,-9.22859 24.90447,11.105126 c 13.69746,6.107818 29.32905,13.078553 34.73688,15.490522 l 9.83242,4.385397 -0.0352,29.102905 c -0.028,23.158425 -0.12886,29.766285 -0.49369,32.350705 -1.97654,14.00182 -7.28095,28.64204 -14.973,41.32556 -12.52453,20.65188 -31.03456,36.51485 -50.06962,42.90934 -1.66966,0.56089 -3.49655,1.01188 -4.05974,1.0022 -0.5632,-0.01 -2.41243,-0.50425 -4.10941,-1.09903 z m 36.38152,-39.50973 c 2.44033,-1.14474 5.50213,-4.05418 6.77018,-6.43329 l 1.03537,-1.94255 0.0234,-19.58776 c 0.0258,-21.64659 0.0109,-21.83002 -2.04234,-25.02967 -1.85729,-2.89433 -5.50029,-5.50081 -8.31808,-5.9514 l -1.27988,-0.20466 -0.17875,-8.81611 c -0.19535,-9.634428 -0.41155,-11.189792 -2.0535,-14.772659 -3.72319,-8.124283 -11.98218,-14.284103 -21.38489,-15.949529 -11.82424,-2.09433 -25.244611,4.556223 -30.544518,15.136543 -1.815652,3.624631 -2.119441,5.65102 -2.341652,15.619785 -0.18418,8.26261 -0.236443,8.85026 -0.787114,8.85026 -1.053404,0 -3.66441,1.032 -5.08692,2.0106 -2.043872,1.40607 -3.792923,3.34842 -4.920927,5.46477 l -0.997659,1.87177 v 20.34161 20.3416 l 0.952146,2.09991 c 1.076662,2.37453 3.678929,5.32182 5.792421,6.56041 0.767142,0.44957 2.157626,0.93137 3.089961,1.07067 0.932336,0.1393 14.921812,0.23241 31.087732,0.2069 l 29.39257,-0.0464 z"
     id="path30"
     transform="scale(0.1)" />
</svg>
